<svg width="224.19998779296876px" height="127.84000244140624px" xmlns="http://www.w3.org/2000/svg" viewBox="137.90000610351564 11.07999877929688 224.19998779296876 127.84000244140624" style="background: rgba(0, 0, 0, 0) none repeat scroll 0% 0%;" preserveAspectRatio="xMidYMid"><defs><linearGradient id="editing-sticker-gradient" x1="0.5" y1="0.2" x2="0.5" y2="0.8"><stop offset="0" stop-color="#fd9"></stop><stop offset="1" stop-color="#9df"></stop></linearGradient><filter id="editing-sticker" x="-100%" y="-100%" width="300%" height="300%"><feMorphology operator="erode" radius="1" in="SourceAlpha" result="alpha-erode"></feMorphology><feConvolveMatrix order="3,3" divisor="1" kernelMatrix="0 1 0 1 1 1 0 1 0" in="alpha-erode" result="alpha-round"></feConvolveMatrix><feMorphology operator="dilate" radius="3.5" in="alpha-round" result="dilate-shadow"></feMorphology><feGaussianBlur in="dilate-shadow" stdDeviation="1.5" result="shadow"></feGaussianBlur><feFlood flood-color="#fff" result="flood-sticker"></feFlood><feComposite operator="in" in="flood-sticker" in2="alpha-round" result="comp-sticker"></feComposite><feMorphology operator="dilate" radius="3" in="comp-sticker" result="morph-sticker"></feMorphology><feConvolveMatrix order="3,3" divisor="1" kernelMatrix="0 1 0 1 1 1 0 1 0" in="morph-sticker" result="sticker"></feConvolveMatrix><feMerge><feMergeNode in="shadow"></feMergeNode><feMergeNode in="sticker"></feMergeNode><feMergeNode in="SourceGraphic"></feMergeNode></feMerge></filter></defs><g filter="url(#editing-sticker)"><g transform="translate(176.39844512939453, 98.6796875)"><path d="M6.21-31.17L6.21-31.17L6.21-31.17Q4.03-32.83 4.03-36.38L4.03-36.38L4.03-36.38Q4.03-39.94 6.37-41.79L6.37-41.79L6.37-41.79Q8.70-43.65 12.74-43.65L12.74-43.65L12.74-43.65Q15.30-43.65 21.38-42.75L21.38-42.75L25.73-42.11L25.73-42.11Q27.90-41.86 30.18-41.86L30.18-41.86L30.18-41.86Q32.45-41.86 33.98-42.82L33.98-42.82L33.98-42.82Q36.29-40.77 36.29-37.82L36.29-37.82L36.29-37.82Q36.29-34.88 33.66-32.77L33.66-32.77L33.66-32.77Q30.98-30.53 27.52-30.53L27.52-30.53L27.52-30.53Q25.86-30.53 23.17-30.98L23.17-30.98L23.17-30.98Q20.03-21.12 20.03-14.27L20.03-14.27L20.03-14.27Q20.03-7.42 23.49-3.84L23.49-3.84L23.49-3.84Q21.89-0.96 19.52 0.16L19.52 0.16L19.52 0.16Q17.15 1.28 13.60 1.28L13.60 1.28L13.60 1.28Q10.05 1.28 7.84-0.67L7.84-0.67L7.84-0.67Q5.63-2.62 5.63-6.66L5.63-6.66L5.63-6.66Q5.63-11.33 8.19-19.01L8.19-19.01L8.19-19.01Q10.75-26.62 14.59-32.45L14.59-32.45L14.59-32.45Q12.74-32.64 10.82-32.64L10.82-32.64L10.82-32.64Q6.85-32.64 6.21-31.17ZM45.25 1.28L45.25 1.28L45.25 1.28Q31.17 1.28 31.17-11.97L31.17-11.97L31.17-11.97Q31.17-21.38 36.35-27.46L36.35-27.46L36.35-27.46Q41.86-33.92 51.39-33.92L51.39-33.92L51.39-33.92Q58.30-33.92 61.82-30.72L61.82-30.72L61.82-30.72Q65.34-27.52 65.34-20.80L65.34-20.80L65.34-20.80Q65.34-10.56 59.84-4.61L59.84-4.61L59.84-4.61Q54.46 1.28 45.25 1.28ZM46.91-26.56L46.91-26.56L46.91-26.56Q46.14-24.83 45.54-22.24L45.54-22.24L45.54-22.24Q44.93-19.65 44.16-15.55L44.16-15.55L44.16-15.55Q43.39-11.46 43.39-6.40L43.39-6.40L43.39-6.40Q43.39-4.74 43.94-3.65L43.94-3.65L43.94-3.65Q44.48-2.56 45.95-2.56L45.95-2.56L45.95-2.56Q47.42-2.56 48.35-3.26L48.35-3.26L48.35-3.26Q49.28-3.97 49.98-5.63L49.98-5.63L49.98-5.63Q51.26-8.58 52.29-14.05L52.29-14.05L52.29-14.05Q53.31-19.52 53.41-21.89L53.41-21.89L53.41-21.89Q53.50-24.26 53.50-26.02L53.50-26.02L53.50-26.02Q53.50-27.78 52.99-28.93L52.99-28.93L52.99-28.93Q52.48-30.08 51.04-30.08L51.04-30.08L51.04-30.08Q49.60-30.08 48.64-29.18L48.64-29.18L48.64-29.18Q47.68-28.29 46.91-26.56ZM89.28-33.92L89.28-33.92L89.28-33.92Q91.58-33.92 93.38-33.41L93.38-33.41L93.38-33.41Q93.44-33.66 93.57-34.37L93.57-34.37L93.89-36.35L93.89-36.35Q94.14-37.63 94.53-39.74L94.53-39.74L95.55-44.80L108.29-46.08L101.18-8.96L101.18-8.96Q101.12-8.58 101.12-7.94L101.12-7.94L101.12-6.91L101.12-6.91Q101.12-5.50 101.82-4.45L101.82-4.45L101.82-4.45Q102.53-3.39 103.68-3.39L103.68-3.39L103.68-3.39Q102.40-0.38 98.50 0.90L98.50 0.90L98.50 0.90Q97.15 1.28 95.26 1.28L95.26 1.28L95.26 1.28Q93.38 1.28 91.65 0.29L91.65 0.29L91.65 0.29Q89.92-0.70 89.41-2.37L89.41-2.37L89.41-2.37Q88.38-0.70 86.34 0.29L86.34 0.29L86.34 0.29Q84.29 1.28 81.31 1.28L81.31 1.28L81.31 1.28Q78.34 1.28 75.87 0.51L75.87 0.51L75.87 0.51Q73.41-0.26 71.87-1.92L71.87-1.92L71.87-1.92Q69.06-5.18 69.06-12.61L69.06-12.61L69.06-12.61Q69.06-22.21 74.69-28.03L74.69-28.03L74.69-28.03Q80.32-33.92 89.28-33.92ZM88.83-30.08L88.83-30.08L88.83-30.08Q86.46-30.08 85.18-27.52L85.18-27.52L85.18-27.52Q83.90-24.96 82.59-18.62L82.59-18.62L82.59-18.62Q81.28-12.29 81.28-6.59L81.28-6.59L81.28-6.59Q81.28-2.69 83.58-2.69L83.58-2.69L83.58-2.69Q85.63-2.69 87.07-4.74L87.07-4.74L87.07-4.74Q88.51-6.78 89.09-10.18L89.09-10.18L92.54-28.93L92.54-28.93Q91.20-30.08 88.83-30.08ZM123.07 1.28L123.07 1.28L123.07 1.28Q108.99 1.28 108.99-11.97L108.99-11.97L108.99-11.97Q108.99-21.38 114.18-27.46L114.18-27.46L114.18-27.46Q119.68-33.92 129.22-33.92L129.22-33.92L129.22-33.92Q136.13-33.92 139.65-30.72L139.65-30.72L139.65-30.72Q143.17-27.52 143.17-20.80L143.17-20.80L143.17-20.80Q143.17-10.56 137.66-4.61L137.66-4.61L137.66-4.61Q132.29 1.28 123.07 1.28ZM124.74-26.56L124.74-26.56L124.74-26.56Q123.97-24.83 123.36-22.24L123.36-22.24L123.36-22.24Q122.75-19.65 121.98-15.55L121.98-15.55L121.98-15.55Q121.22-11.46 121.22-6.40L121.22-6.40L121.22-6.40Q121.22-4.74 121.76-3.65L121.76-3.65L121.76-3.65Q122.30-2.56 123.78-2.56L123.78-2.56L123.78-2.56Q125.25-2.56 126.18-3.26L126.18-3.26L126.18-3.26Q127.10-3.97 127.81-5.63L127.81-5.63L127.81-5.63Q129.09-8.58 130.11-14.05L130.11-14.05L130.11-14.05Q131.14-19.52 131.23-21.89L131.23-21.89L131.23-21.89Q131.33-24.26 131.33-26.02L131.33-26.02L131.33-26.02Q131.33-27.78 130.82-28.93L130.82-28.93L130.82-28.93Q130.30-30.08 128.86-30.08L128.86-30.08L128.86-30.08Q127.42-30.08 126.46-29.18L126.46-29.18L126.46-29.18Q125.50-28.29 124.74-26.56Z" fill="url(#editing-sticker-gradient)" stroke="#000" stroke-width="2.5"></path></g></g><style>text {
  font-size: 64px;
  font-family: Arial Black;
  dominant-baseline: central;
  text-anchor: middle;
}</style></svg>